<?xml version="1.0" encoding="iso-8859-1"?>
<!-- Generator: Adobe Illustrator 19.0.0, SVG Export Plug-In . SVG Version: 6.00 Build 0)  -->
<svg version="1.1" id="Layer_1" xmlns="http://www.w3.org/2000/svg" xmlns:xlink="http://www.w3.org/1999/xlink" x="0px" y="0px"
	 viewBox="0 0 512 512" style="enable-background:new 0 0 512 512;" xml:space="preserve">
<g>
	<g>
		<path d="M512,178.318H395.933l2.246-17.946h16.894c16.252,0,29.473-13.221,29.473-29.473s-13.221-29.473-29.473-29.473h-9.517
			h-8.664h-83.601l9.623,76.891H193.03l2.085-26.075h7.571v-58.42h-2.899l3.535-44.205h-63.884V27.241h-15.294v22.378h-23.642
			l3.535,44.205h-2.899v58.42h7.57l2.085,26.075H0v60.058h74.184L32.74,492.161h61.544l9.042-55.368h305.347l9.042,55.368h61.545
			l-41.444-253.784H512V178.318z M403.642,116.721h11.431c7.818,0,14.179,6.36,14.179,14.179s-6.36,14.179-14.179,14.179h-14.98
			L403.642,116.721z M388.229,116.721l-7.64,61.046h-42.331l-7.64-61.046H388.229z M186.755,64.913l-2.311,28.911h-65.065
			l-2.312-28.911H186.755z M116.431,109.117h70.96v27.832h-70.96V109.117z M179.772,152.244l-2.085,26.075h-51.551l-2.085-26.075
			H179.772z M81.286,476.867H50.734l38.946-238.49h30.551L81.286,476.867z M135.728,238.376h240.544l23.232,142.266H112.496
			L135.728,238.376z M105.824,421.498l4.174-25.562h292.003l4.174,25.562H105.824z M461.266,476.867h-30.551l-38.946-238.49h30.55
			L461.266,476.867z M496.706,223.082L496.706,223.082h-61.387h-61.544H138.226H76.681H15.294v-29.471h96.721h79.791h304.9V223.082z
			"/>
	</g>
</g>
<g>
	<g>
		<rect x="333.593" y="69.343" width="15.294" height="19.634"/>
	</g>
</g>
<g>
	<g>
		<rect x="375.121" y="50.858" width="15.294" height="19.634"/>
	</g>
</g>
<g>
	<g>
		<rect x="340.342" y="19.839" width="15.294" height="19.634"/>
	</g>
</g>
<g>
</g>
<g>
</g>
<g>
</g>
<g>
</g>
<g>
</g>
<g>
</g>
<g>
</g>
<g>
</g>
<g>
</g>
<g>
</g>
<g>
</g>
<g>
</g>
<g>
</g>
<g>
</g>
<g>
</g>
</svg>
