<svg width="5498" height="1080" viewBox="0 0 5498 1080" fill="none" xmlns="http://www.w3.org/2000/svg">
<path fill-rule="evenodd" clip-rule="evenodd" d="M900 180H180V900H900V180ZM282.857 282.857H797.143V385.714H282.857V282.857ZM797.143 488.571V797.143H694.286V488.571H797.143ZM282.857 591.429H488.572V694.286L282.857 694.286L282.857 797.143H591.429V488.571L282.857 488.571L282.857 591.429Z" fill="#08DE6F"/>
<path d="M1375.13 848.572C1320.6 848.572 1279.71 833.205 1252.44 802.472C1225.68 771.739 1211.05 725.887 1208.57 664.916L1303 646.327C1304.49 684.496 1310.44 713.742 1320.85 734.066C1331.75 753.893 1348.61 763.807 1371.41 763.807C1388.26 763.807 1400.66 758.85 1408.59 748.936C1417.01 738.527 1421.23 724.647 1421.23 707.298C1421.23 683.504 1415.78 663.429 1404.87 647.071C1394.46 630.217 1377.85 611.876 1355.05 592.048L1279.21 525.873C1255.91 506.045 1238.32 484.73 1226.42 461.928C1215.02 439.126 1209.32 411.862 1209.32 380.138C1209.32 333.047 1222.95 296.613 1250.21 270.837C1277.97 244.565 1316.14 231.429 1364.72 231.429C1416.77 231.429 1453.94 246.3 1476.25 276.041C1499.05 305.288 1512.19 344.943 1515.66 395.009L1421.23 411.367C1419.74 378.651 1415.03 354.114 1407.1 337.756C1399.67 320.902 1384.79 312.475 1362.49 312.475C1346.63 312.475 1334.23 317.928 1325.31 328.833C1316.39 339.243 1311.93 352.627 1311.93 368.985C1311.93 388.317 1315.64 404.675 1323.08 418.059C1331.01 430.947 1343.65 444.826 1361 459.697L1436.1 525.873C1464.35 550.162 1486.41 576.186 1502.27 603.945C1518.14 631.704 1526.07 663.924 1526.07 700.606C1526.07 729.356 1519.62 754.885 1506.74 777.191C1494.34 799.498 1476.75 817.095 1453.94 829.983C1431.14 842.375 1404.87 848.572 1375.13 848.572Z" fill="#08DE6F"/>
<path d="M1620.6 238.121H1797.57C1900.18 238.121 1951.48 295.126 1951.48 409.136C1951.48 518.189 1897.7 572.716 1790.13 572.716H1729.9V840.393H1620.6V238.121ZM1772.29 495.387C1802.03 495.387 1822.1 489.191 1832.51 476.799C1842.92 463.911 1848.13 441.109 1848.13 408.393C1848.13 384.599 1846.39 366.506 1842.92 354.114C1839.45 341.226 1832.27 331.56 1821.36 325.115C1810.95 318.671 1794.59 315.449 1772.29 315.449H1729.9V495.387H1772.29Z" fill="#08DE6F"/>
<path d="M2045.42 238.121H2153.98V840.393H2045.42V238.121Z" fill="#08DE6F"/>
<path d="M2276.96 238.121H2353.54L2500.02 581.639V238.121H2590.73V840.393H2517.87L2370.64 480.516V840.393H2276.96V238.121Z" fill="#08DE6F"/>
<path d="M2711.87 238.121H2853.89C2902.47 238.121 2940.64 244.813 2968.4 258.196C2996.15 271.084 3015.73 291.16 3027.14 318.424C3039.03 345.191 3044.98 380.881 3044.98 425.494V644.84C3044.98 690.444 3039.03 727.374 3027.14 755.628C3015.73 783.883 2996.4 805.198 2969.14 819.573C2941.88 833.453 2904.95 840.393 2858.35 840.393H2711.87V238.121ZM2855.38 763.807C2879.67 763.807 2897.26 759.594 2908.17 751.167C2919.07 742.74 2926.01 731.091 2928.99 716.22C2931.96 700.854 2933.45 678.3 2933.45 648.558V418.059C2933.45 391.291 2931.71 370.967 2928.24 357.088C2924.77 343.208 2917.34 333.047 2905.94 326.603C2895.03 319.663 2877.68 316.193 2853.89 316.193H2821.17V763.807H2855.38Z" fill="#08DE6F"/>
<path d="M3155.5 238.121H3264.8V765.294H3411.28V840.393H3155.5V238.121Z" fill="#08DE6F"/>
<path d="M3498.2 238.121H3751.01V315.449H3607.5V488.695H3720.52V565.281H3607.5V765.294H3752.49V840.393H3498.2V238.121Z" fill="#08DE6F"/>
<path d="M3906.21 319.167H3810.29V238.121H4109.94V319.167H4016.25V840.393H3906.21V319.167Z" fill="#08DE6F"/>
<path d="M4194.49 238.121H4447.3V315.449H4303.79V488.695H4416.81V565.281H4303.79V765.294H4448.78V840.393H4194.49V238.121Z" fill="#08DE6F"/>
<path d="M4704.37 848.572C4641.91 848.572 4597.54 831.222 4571.27 796.523C4545.49 761.329 4532.61 711.759 4532.61 647.814V432.93C4532.61 367.002 4545.49 316.936 4571.27 282.733C4597.05 248.53 4641.41 231.429 4704.37 231.429C4763.35 231.429 4805.24 246.3 4830.02 276.041C4854.81 305.783 4867.2 348.661 4867.2 404.675V455.236H4761.62V403.188C4761.62 381.873 4760.63 365.267 4758.64 353.37C4756.66 340.978 4751.46 331.064 4743.03 323.628C4735.1 315.697 4722.46 311.732 4705.11 311.732C4687.26 311.732 4673.88 315.945 4664.96 324.372C4656.04 332.303 4650.09 343.208 4647.11 357.088C4644.63 370.472 4643.4 388.069 4643.4 409.88V670.864C4643.4 705.067 4647.86 729.852 4656.78 745.219C4665.7 760.09 4681.81 767.525 4705.11 767.525C4721.96 767.525 4734.36 763.559 4742.29 755.628C4750.71 747.697 4755.92 737.288 4757.9 724.399C4760.38 711.016 4761.62 693.418 4761.62 671.608V617.329H4867.2V665.659C4867.2 723.656 4855.06 768.764 4830.77 800.985C4806.48 832.709 4764.35 848.572 4704.37 848.572Z" fill="#08DE6F"/>
<path d="M4975.05 238.121H5084.35V489.439H5207.03V238.121H5317.08V840.393H5207.03V568.255H5084.35V840.393H4975.05V238.121Z" fill="#08DE6F"/>
</svg>
