<svg width="30" height="30" viewBox="0 0 30 30" fill="none" xmlns="http://www.w3.org/2000/svg">
<g clip-path="url(#clip0)" filter="url(#filter0_d)">
<path d="M12.25 20.1667C12.7562 20.1667 13.1666 19.7563 13.1666 19.25C13.1666 18.7437 12.7562 18.3333 12.25 18.3333C11.7437 18.3333 11.3333 18.7437 11.3333 19.25C11.3333 19.7563 11.7437 20.1667 12.25 20.1667Z" stroke="black" stroke-width="2" stroke-linecap="round" stroke-linejoin="round"/>
<path d="M22.3334 20.1667C22.8396 20.1667 23.25 19.7563 23.25 19.25C23.25 18.7437 22.8396 18.3333 22.3334 18.3333C21.8271 18.3333 21.4167 18.7437 21.4167 19.25C21.4167 19.7563 21.8271 20.1667 22.3334 20.1667Z" stroke="black" stroke-width="2" stroke-linecap="round" stroke-linejoin="round"/>
<path d="M4.91669 0.916656H8.58335L11.04 13.1908C11.1238 13.6129 11.3534 13.992 11.6886 14.2618C12.0238 14.5316 12.4432 14.6749 12.8734 14.6667H21.7834C22.2135 14.6749 22.6329 14.5316 22.9681 14.2618C23.3033 13.992 23.5329 13.6129 23.6167 13.1908L25.0834 5.49999H9.50002" stroke="black" stroke-width="2" stroke-linecap="round" stroke-linejoin="round"/>
</g>
<defs>
<filter id="filter0_d" x="0" y="0" width="30" height="30" filterUnits="userSpaceOnUse" color-interpolation-filters="sRGB">
<feFlood flood-opacity="0" result="BackgroundImageFix"/>
<feColorMatrix in="SourceAlpha" type="matrix" values="0 0 0 0 0 0 0 0 0 0 0 0 0 0 0 0 0 0 127 0"/>
<feOffset dy="4"/>
<feGaussianBlur stdDeviation="2"/>
<feColorMatrix type="matrix" values="0 0 0 0 0 0 0 0 0 0 0 0 0 0 0 0 0 0 0.25 0"/>
<feBlend mode="normal" in2="BackgroundImageFix" result="effect1_dropShadow"/>
<feBlend mode="normal" in="SourceGraphic" in2="effect1_dropShadow" result="shape"/>
</filter>
<clipPath id="clip0">
<rect width="22" height="22" fill="white" transform="translate(4)"/>
</clipPath>
</defs>
</svg>
